<svg xmlns="http://www.w3.org/2000/svg" xmlns:xlink="http://www.w3.org/1999/xlink" width="840" height="521.04"><rect width="840" height="521.04" rx="0" ry="0" class="a"/><svg height="521.04" viewBox="0 0 84 52.104" width="840" xmlns="http://www.w3.org/2000/svg" xmlns:xlink="http://www.w3.org/1999/xlink"><style>@keyframes o{0%{transform:translateX(0)}1.7%{transform:translateX(-336px)}10.3%{transform:translateX(-504px)}10.7%{transform:translateX(-588px)}12.2%{transform:translateX(-840px)}12.3%{transform:translateX(-1092px)}16.9%{transform:translateX(-1260px)}17.6%{transform:translateX(-1344px)}17.9%{transform:translateX(-1512px)}18.7%{transform:translateX(-1596px)}19.7%{transform:translateX(-1764px)}20.3%{transform:translateX(-1848px)}21.1%{transform:translateX(-1932px)}23.5%{transform:translateX(-2100px)}24.8%{transform:translateX(-2268px)}27.4%{transform:translateX(-2436px)}29.1%{transform:translateX(-2520px)}32.8%{transform:translateX(-2604px)}34.6%{transform:translateX(-2772px)}35.9%{transform:translateX(-2856px)}36.2%{transform:translateX(-2940px)}36.8%{transform:translateX(-3024px)}37.4%{transform:translateX(-3108px)}40.2%{transform:translateX(-3192px)}41.5%{transform:translateX(-3276px)}41.8%{transform:translateX(-3360px)}43.8%{transform:translateX(-3528px)}46.3%{transform:translateX(-3696px)}52.8%{transform:translateX(-4032px)}52.9%{transform:translateX(-4116px)}59.6%{transform:translateX(-4284px)}60%{transform:translateX(-4368px)}60.9%{transform:translateX(-4788px)}61%{transform:translateX(-4956px)}70.3%{transform:translateX(-5040px)}to{transform:translateX(-5124px)}}.a{fill:#282d35}.c{fill:#44475a}.g,.h,.i{fill:#555;white-space:pre}.h,.i{fill:#b9c0cb;font-weight:700}.i{fill:#d290e4}.j,.k,.l,.q{fill:#66c2cd;white-space:pre}.k,.l,.q{fill:#dbab79}.l,.q{fill:#b9c0cb}.q{fill:#e88388}</style><g font-family="Monaco,Consolas,Menlo,'Bitstream Vera Sans Mono','Powerline Symbols',monospace" font-size="1.67"><defs><symbol id="1"><path class="c" d="M0 0h3v2.171H0z"/><text y="1.67" style="white-space:pre" fill="#f8f8f2">~/</text><path class="c" d="M3.006 0h9v2.171h-9z"/><text x="3.006" y="1.67" style="white-space:pre" fill="#f8f8f2" font-weight="700">mrf-demo</text><text x="12.024" y="1.67" style="white-space:pre" fill="#44475a"></text></symbol><symbol id="2"><text y="1.67" class="g"></text></symbol><symbol id="3"><text y="1.67" class="g"></text><text x="2.004" y="1.67" class="h">l</text><text x="3.006" y="1.67" class="g">s</text></symbol><symbol id="4"><text y="1.67" class="g"></text><text x="2.004" y="1.67" class="h">ls</text></symbol><symbol id="5"><text y="1.67" class="i">image-1.jpg</text><text x="13.026" y="1.67" class="i">image-3.jpg</text><text x="26.052" y="1.67" class="i">image-5.jpg</text><text x="39.078" y="1.67" class="i">image-7.jpg</text><text x="52.104" y="1.67" class="i">image-9.jpg</text></symbol><symbol id="6"><text y="1.67" class="i">image-2.jpg</text><text x="13.026" y="1.67" class="i">image-4.jpg</text><text x="26.052" y="1.67" class="i">image-6.jpg</text><text x="39.078" y="1.67" class="i">image-8.jpg</text></symbol><symbol id="7"><text y="1.67" class="g"></text><text x="2.004" y="1.67" class="h">mrf</text><text x="6.012" y="1.67" class="g">mv</text><text x="9.018" y="1.67" class="g">*</text><text x="11.022" y="1.67" class="g">&apos;{=image}{}&apos;</text></symbol><symbol id="8"><text y="1.67" class="g"></text><text x="2.004" y="1.67" class="h">mrf</text><text x="6.012" y="1.67" class="j">mv</text><text x="9.018" y="1.67" class="g">*</text><text x="11.022" y="1.67" class="g">&apos;{=image}{}&apos;</text></symbol><symbol id="9"><text y="1.67" class="g"></text><text x="2.004" y="1.67" class="h">mrf</text><text x="6.012" y="1.67" class="j">mv</text><text x="9.018" y="1.67" class="k">*</text><text x="11.022" y="1.67" class="g">&apos;{=image}{}&apos;</text></symbol><symbol id="10"><text y="1.67" class="g"></text><text x="2.004" y="1.67" class="h">mrf</text><text x="6.012" y="1.67" class="j">mv</text><text x="9.018" y="1.67" class="k">*</text><text x="11.022" y="1.67" class="k">&apos;{=photo}{}&apos;</text></symbol><symbol id="11"><text y="1.67" class="l">Moving</text><text x="7.014" y="1.67" class="l">9</text><text x="9.018" y="1.67" class="l">out</text><text x="13.026" y="1.67" class="l">of</text><text x="16.032" y="1.67" class="l">9</text><text x="18.036" y="1.67" class="l">items:</text></symbol><symbol id="12"><text x="4.008" y="1.67" class="l">image-1.jpg</text><text x="16.032" y="1.67" class="l">-&gt;</text><text x="19.038" y="1.67" class="l">photo-1.jpg</text></symbol><symbol id="13"><text x="4.008" y="1.67" class="l">image-2.jpg</text><text x="16.032" y="1.67" class="l">-&gt;</text><text x="19.038" y="1.67" class="l">photo-2.jpg</text></symbol><symbol id="14"><text x="4.008" y="1.67" class="l">...</text></symbol><symbol id="15"><text x="4.008" y="1.67" class="l">image-8.jpg</text><text x="16.032" y="1.67" class="l">-&gt;</text><text x="19.038" y="1.67" class="l">photo-8.jpg</text></symbol><symbol id="16"><text x="4.008" y="1.67" class="l">image-9.jpg</text><text x="16.032" y="1.67" class="l">-&gt;</text><text x="19.038" y="1.67" class="l">photo-9.jpg</text></symbol><symbol id="17"><text y="1.67" class="l">Do</text><text x="3.006" y="1.67" class="l">you</text><text x="7.014" y="1.67" class="l">want</text><text x="12.024" y="1.67" class="l">to</text><text x="15.03" y="1.67" class="l">continue?</text><text x="25.05" y="1.67" class="l">yes</text></symbol><symbol id="18"><text y="1.67" class="i">photo-1.jpg</text><text x="13.026" y="1.67" class="i">photo-3.jpg</text><text x="26.052" y="1.67" class="i">photo-5.jpg</text><text x="39.078" y="1.67" class="i">photo-7.jpg</text><text x="52.104" y="1.67" class="i">photo-9.jpg</text></symbol><symbol id="19"><text y="1.67" class="i">photo-2.jpg</text><text x="13.026" y="1.67" class="i">photo-4.jpg</text><text x="26.052" y="1.67" class="i">photo-6.jpg</text><text x="39.078" y="1.67" class="i">photo-8.jpg</text></symbol><symbol id="a"><path fill="transparent" d="M0 0h84v24H0z"/></symbol><symbol id="b"><path fill="#6f7683" d="M0 0h1.102v2.171H0z"/></symbol></defs><path class="a" d="M0 0h84v52.104H0z"/><g style="animation-duration:10.104074s;animation-iteration-count:infinite;animation-name:o;animation-timing-function:steps(1,end)"><svg width="5208"><svg><use xlink:href="#a"/><use xlink:href="#b" x="-.004"/></svg><svg x="84"><use xlink:href="#a"/><use xlink:href="#b" x="-.004"/></svg><svg x="168"><use xlink:href="#a"/><use xlink:href="#b" x="-.004"/></svg><svg x="252"><use xlink:href="#a"/><use xlink:href="#b" x="-.004"/></svg><svg x="336"><use xlink:href="#a"/><use xlink:href="#b" x="1.996" y="2.146"/><use xlink:href="#1"/><use xlink:href="#2" y="2.171"/></svg><svg x="420"><use xlink:href="#a"/><use xlink:href="#b" x="2.996" y="2.146"/><use xlink:href="#1"/><text y="3.841" class="g"></text><text x="2.004" y="3.841" class="h">l</text></svg><svg x="504"><use xlink:href="#a"/><use xlink:href="#b" x="2.996" y="2.146"/><use xlink:href="#1"/><use xlink:href="#3" y="2.171"/></svg><svg x="588"><use xlink:href="#a"/><use xlink:href="#b" x="3.996" y="2.146"/><use xlink:href="#1"/><use xlink:href="#4" y="2.171"/></svg><svg x="672"><use xlink:href="#a"/><use xlink:href="#b" x="-.004" y="4.317"/><use xlink:href="#1"/><use xlink:href="#4" y="2.171"/></svg><svg x="756"><use xlink:href="#a"/><use xlink:href="#b" x="-.004" y="4.317"/><use xlink:href="#1"/><use xlink:href="#4" y="2.171"/></svg><svg x="840"><use xlink:href="#a"/><use xlink:href="#b" x="-.004" y="8.659"/><use xlink:href="#1"/><use xlink:href="#4" y="2.171"/><use xlink:href="#5" y="4.342"/><use xlink:href="#6" y="6.513"/></svg><svg x="924"><use xlink:href="#a"/><use xlink:href="#b" x="-.004" y="8.659"/><use xlink:href="#1"/><use xlink:href="#4" y="2.171"/><use xlink:href="#5" y="4.342"/><use xlink:href="#6" y="6.513"/></svg><svg x="1008"><use xlink:href="#a"/><use xlink:href="#b" x="-.004" y="8.659"/><use xlink:href="#1"/><use xlink:href="#4" y="2.171"/><use xlink:href="#5" y="4.342"/><use xlink:href="#6" y="6.513"/></svg><svg x="1092"><use xlink:href="#a"/><use xlink:href="#b" x="1.996" y="10.83"/><use xlink:href="#1"/><use xlink:href="#4" y="2.171"/><use xlink:href="#5" y="4.342"/><use xlink:href="#6" y="6.513"/><use xlink:href="#1" y="8.684"/><use xlink:href="#2" y="10.855"/></svg><svg x="1176"><use xlink:href="#a"/><use xlink:href="#b" x="2.996" y="10.83"/><use xlink:href="#1"/><use xlink:href="#4" y="2.171"/><use xlink:href="#5" y="4.342"/><use xlink:href="#6" y="6.513"/><use xlink:href="#1" y="8.684"/><text y="12.525" class="g"></text><text x="2.004" y="12.525" class="l">m</text></svg><svg x="1260"><use xlink:href="#a"/><use xlink:href="#b" x="2.996" y="10.83"/><use xlink:href="#1"/><use xlink:href="#4" y="2.171"/><use xlink:href="#5" y="4.342"/><use xlink:href="#6" y="6.513"/><use xlink:href="#1" y="8.684"/><text y="12.525" class="g"></text><text x="2.004" y="12.525" class="q">m</text><text x="3.006" y="12.525" class="g">rf</text><text x="6.012" y="12.525" class="g">mv</text><text x="9.018" y="12.525" class="g">*</text><text x="11.022" y="12.525" class="g">&apos;{=image}{}&apos;</text></svg><svg x="1344"><use xlink:href="#a"/><use xlink:href="#b" x="3.996" y="10.83"/><use xlink:href="#1"/><use xlink:href="#4" y="2.171"/><use xlink:href="#5" y="4.342"/><use xlink:href="#6" y="6.513"/><use xlink:href="#1" y="8.684"/><text y="12.525" class="g"></text><text x="2.004" y="12.525" class="q">mr</text><text x="4.008" y="12.525" class="g">f</text><text x="6.012" y="12.525" class="g">mv</text><text x="9.018" y="12.525" class="g">*</text><text x="11.022" y="12.525" class="g">&apos;{=image}{}&apos;</text></svg><svg x="1428"><use xlink:href="#a"/><use xlink:href="#b" x="4.996" y="10.83"/><use xlink:href="#1"/><use xlink:href="#4" y="2.171"/><use xlink:href="#5" y="4.342"/><use xlink:href="#6" y="6.513"/><use xlink:href="#1" y="8.684"/><text y="12.525" class="g"></text><text x="2.004" y="12.525" class="q">mrf</text><text x="6.012" y="12.525" class="g">mv</text><text x="9.018" y="12.525" class="g">*</text><text x="11.022" y="12.525" class="g">&apos;{=image}{}&apos;</text></svg><svg x="1512"><use xlink:href="#a"/><use xlink:href="#b" x="4.996" y="10.83"/><use xlink:href="#1"/><use xlink:href="#4" y="2.171"/><use xlink:href="#5" y="4.342"/><use xlink:href="#6" y="6.513"/><use xlink:href="#1" y="8.684"/><use xlink:href="#7" y="10.855"/></svg><svg x="1596"><use xlink:href="#a"/><use xlink:href="#b" x="5.996" y="10.83"/><use xlink:href="#1"/><use xlink:href="#4" y="2.171"/><use xlink:href="#5" y="4.342"/><use xlink:href="#6" y="6.513"/><use xlink:href="#1" y="8.684"/><use xlink:href="#7" y="10.855"/></svg><svg x="1680"><use xlink:href="#a"/><use xlink:href="#b" x="6.996" y="10.83"/><use xlink:href="#1"/><use xlink:href="#4" y="2.171"/><use xlink:href="#5" y="4.342"/><use xlink:href="#6" y="6.513"/><use xlink:href="#1" y="8.684"/><text y="12.525" class="g"></text><text x="2.004" y="12.525" class="h">mrf</text><text x="6.012" y="12.525" class="l">m</text><text x="7.014" y="12.525" class="g">v</text><text x="9.018" y="12.525" class="g">*</text><text x="11.022" y="12.525" class="g">&apos;{=image}{}&apos;</text></svg><svg x="1764"><use xlink:href="#a"/><use xlink:href="#b" x="6.996" y="10.83"/><use xlink:href="#1"/><use xlink:href="#4" y="2.171"/><use xlink:href="#5" y="4.342"/><use xlink:href="#6" y="6.513"/><use xlink:href="#1" y="8.684"/><text y="12.525" class="g"></text><text x="2.004" y="12.525" class="h">mrf</text><text x="6.012" y="12.525" class="j">m</text><text x="7.014" y="12.525" class="g">v</text><text x="9.018" y="12.525" class="g">*</text><text x="11.022" y="12.525" class="g">&apos;{=image}{}&apos;</text></svg><svg x="1848"><use xlink:href="#a"/><use xlink:href="#b" x="7.996" y="10.83"/><use xlink:href="#1"/><use xlink:href="#4" y="2.171"/><use xlink:href="#5" y="4.342"/><use xlink:href="#6" y="6.513"/><use xlink:href="#1" y="8.684"/><use xlink:href="#8" y="10.855"/></svg><svg x="1932"><use xlink:href="#a"/><use xlink:href="#b" x="8.996" y="10.83"/><use xlink:href="#1"/><use xlink:href="#4" y="2.171"/><use xlink:href="#5" y="4.342"/><use xlink:href="#6" y="6.513"/><use xlink:href="#1" y="8.684"/><use xlink:href="#8" y="10.855"/></svg><svg x="2016"><use xlink:href="#a"/><use xlink:href="#b" x="9.996" y="10.83"/><use xlink:href="#1"/><use xlink:href="#4" y="2.171"/><use xlink:href="#5" y="4.342"/><use xlink:href="#6" y="6.513"/><use xlink:href="#1" y="8.684"/><text y="12.525" class="g"></text><text x="2.004" y="12.525" class="h">mrf</text><text x="6.012" y="12.525" class="j">mv</text><text x="9.018" y="12.525" class="l">*</text><text x="11.022" y="12.525" class="g">&apos;{=image}{}&apos;</text></svg><svg x="2100"><use xlink:href="#a"/><use xlink:href="#b" x="9.996" y="10.83"/><use xlink:href="#1"/><use xlink:href="#4" y="2.171"/><use xlink:href="#5" y="4.342"/><use xlink:href="#6" y="6.513"/><use xlink:href="#1" y="8.684"/><use xlink:href="#9" y="10.855"/></svg><svg x="2184"><use xlink:href="#a"/><use xlink:href="#b" x="10.996" y="10.83"/><use xlink:href="#1"/><use xlink:href="#4" y="2.171"/><use xlink:href="#5" y="4.342"/><use xlink:href="#6" y="6.513"/><use xlink:href="#1" y="8.684"/><use xlink:href="#9" y="10.855"/></svg><svg x="2268"><use xlink:href="#a"/><use xlink:href="#b" x="10.996" y="10.83"/><use xlink:href="#1"/><use xlink:href="#4" y="2.171"/><use xlink:href="#5" y="4.342"/><use xlink:href="#6" y="6.513"/><use xlink:href="#1" y="8.684"/><use xlink:href="#9" y="10.855"/></svg><svg x="2352"><use xlink:href="#a"/><use xlink:href="#b" x="11.996" y="10.83"/><use xlink:href="#1"/><use xlink:href="#4" y="2.171"/><use xlink:href="#5" y="4.342"/><use xlink:href="#6" y="6.513"/><use xlink:href="#1" y="8.684"/><text y="12.525" class="g"></text><text x="2.004" y="12.525" class="h">mrf</text><text x="6.012" y="12.525" class="j">mv</text><text x="9.018" y="12.525" class="k">*</text><text x="11.022" y="12.525" class="l">&apos;</text><text x="12.024" y="12.525" class="g">{=image}{}&apos;</text></svg><svg x="2436"><use xlink:href="#a"/><use xlink:href="#b" x="11.996" y="10.83"/><use xlink:href="#1"/><use xlink:href="#4" y="2.171"/><use xlink:href="#5" y="4.342"/><use xlink:href="#6" y="6.513"/><use xlink:href="#1" y="8.684"/><text y="12.525" class="g"></text><text x="2.004" y="12.525" class="h">mrf</text><text x="6.012" y="12.525" class="j">mv</text><text x="9.018" y="12.525" class="k">*</text><text x="11.022" y="12.525" class="q">&apos;</text><text x="12.024" y="12.525" class="g">{=image}{}&apos;</text></svg><svg x="2520"><use xlink:href="#a"/><use xlink:href="#b" x="12.996" y="10.83"/><use xlink:href="#1"/><use xlink:href="#4" y="2.171"/><use xlink:href="#5" y="4.342"/><use xlink:href="#6" y="6.513"/><use xlink:href="#1" y="8.684"/><text y="12.525" class="g"></text><text x="2.004" y="12.525" class="h">mrf</text><text x="6.012" y="12.525" class="j">mv</text><text x="9.018" y="12.525" class="k">*</text><text x="11.022" y="12.525" class="q">&apos;</text><text x="12.024" y="12.525" class="k">{</text><text x="13.026" y="12.525" class="g">=image}{}&apos;</text></svg><svg x="2604"><use xlink:href="#a"/><use xlink:href="#b" x="13.996" y="10.83"/><use xlink:href="#1"/><use xlink:href="#4" y="2.171"/><use xlink:href="#5" y="4.342"/><use xlink:href="#6" y="6.513"/><use xlink:href="#1" y="8.684"/><text y="12.525" class="g"></text><text x="2.004" y="12.525" class="h">mrf</text><text x="6.012" y="12.525" class="j">mv</text><text x="9.018" y="12.525" class="k">*</text><text x="11.022" y="12.525" class="q">&apos;</text><text x="12.024" y="12.525" class="k">{=</text><text x="14.028" y="12.525" class="g">image}{}&apos;</text></svg><svg x="2688"><use xlink:href="#a"/><use xlink:href="#b" x="14.996" y="10.83"/><use xlink:href="#1"/><use xlink:href="#4" y="2.171"/><use xlink:href="#5" y="4.342"/><use xlink:href="#6" y="6.513"/><use xlink:href="#1" y="8.684"/><text y="12.525" class="g"></text><text x="2.004" y="12.525" class="h">mrf</text><text x="6.012" y="12.525" class="j">mv</text><text x="9.018" y="12.525" class="k">*</text><text x="11.022" y="12.525" class="q">&apos;</text><text x="12.024" y="12.525" class="k">{=p</text></svg><svg x="2772"><use xlink:href="#a"/><use xlink:href="#b" x="14.996" y="10.83"/><use xlink:href="#1"/><use xlink:href="#4" y="2.171"/><use xlink:href="#5" y="4.342"/><use xlink:href="#6" y="6.513"/><use xlink:href="#1" y="8.684"/><text y="12.525" class="g"></text><text x="2.004" y="12.525" class="h">mrf</text><text x="6.012" y="12.525" class="j">mv</text><text x="9.018" y="12.525" class="k">*</text><text x="11.022" y="12.525" class="q">&apos;</text><text x="12.024" y="12.525" class="k">{=p</text><text x="15.03" y="12.525" class="g">hoto}{}&apos;</text></svg><svg x="2856"><use xlink:href="#a"/><use xlink:href="#b" x="15.996" y="10.83"/><use xlink:href="#1"/><use xlink:href="#4" y="2.171"/><use xlink:href="#5" y="4.342"/><use xlink:href="#6" y="6.513"/><use xlink:href="#1" y="8.684"/><text y="12.525" class="g"></text><text x="2.004" y="12.525" class="h">mrf</text><text x="6.012" y="12.525" class="j">mv</text><text x="9.018" y="12.525" class="k">*</text><text x="11.022" y="12.525" class="q">&apos;</text><text x="12.024" y="12.525" class="k">{=ph</text><text x="16.032" y="12.525" class="g">oto}{}&apos;</text></svg><svg x="2940"><use xlink:href="#a"/><use xlink:href="#b" x="16.996" y="10.83"/><use xlink:href="#1"/><use xlink:href="#4" y="2.171"/><use xlink:href="#5" y="4.342"/><use xlink:href="#6" y="6.513"/><use xlink:href="#1" y="8.684"/><text y="12.525" class="g"></text><text x="2.004" y="12.525" class="h">mrf</text><text x="6.012" y="12.525" class="j">mv</text><text x="9.018" y="12.525" class="k">*</text><text x="11.022" y="12.525" class="q">&apos;</text><text x="12.024" y="12.525" class="k">{=pho</text><text x="17.034" y="12.525" class="g">to}{}&apos;</text></svg><svg x="3024"><use xlink:href="#a"/><use xlink:href="#b" x="17.996" y="10.83"/><use xlink:href="#1"/><use xlink:href="#4" y="2.171"/><use xlink:href="#5" y="4.342"/><use xlink:href="#6" y="6.513"/><use xlink:href="#1" y="8.684"/><text y="12.525" class="g"></text><text x="2.004" y="12.525" class="h">mrf</text><text x="6.012" y="12.525" class="j">mv</text><text x="9.018" y="12.525" class="k">*</text><text x="11.022" y="12.525" class="q">&apos;</text><text x="12.024" y="12.525" class="k">{=phot</text><text x="18.036" y="12.525" class="g">o}{}&apos;</text></svg><svg x="3108"><use xlink:href="#a"/><use xlink:href="#b" x="18.996" y="10.83"/><use xlink:href="#1"/><use xlink:href="#4" y="2.171"/><use xlink:href="#5" y="4.342"/><use xlink:href="#6" y="6.513"/><use xlink:href="#1" y="8.684"/><text y="12.525" class="g"></text><text x="2.004" y="12.525" class="h">mrf</text><text x="6.012" y="12.525" class="j">mv</text><text x="9.018" y="12.525" class="k">*</text><text x="11.022" y="12.525" class="q">&apos;</text><text x="12.024" y="12.525" class="k">{=photo</text><text x="19.038" y="12.525" class="g">}{}&apos;</text></svg><svg x="3192"><use xlink:href="#a"/><use xlink:href="#b" x="19.996" y="10.83"/><use xlink:href="#1"/><use xlink:href="#4" y="2.171"/><use xlink:href="#5" y="4.342"/><use xlink:href="#6" y="6.513"/><use xlink:href="#1" y="8.684"/><text y="12.525" class="g"></text><text x="2.004" y="12.525" class="h">mrf</text><text x="6.012" y="12.525" class="j">mv</text><text x="9.018" y="12.525" class="k">*</text><text x="11.022" y="12.525" class="q">&apos;</text><text x="12.024" y="12.525" class="k">{=photo}</text><text x="20.04" y="12.525" class="g">{}&apos;</text></svg><svg x="3276"><use xlink:href="#a"/><use xlink:href="#b" x="20.996" y="10.83"/><use xlink:href="#1"/><use xlink:href="#4" y="2.171"/><use xlink:href="#5" y="4.342"/><use xlink:href="#6" y="6.513"/><use xlink:href="#1" y="8.684"/><text y="12.525" class="g"></text><text x="2.004" y="12.525" class="h">mrf</text><text x="6.012" y="12.525" class="j">mv</text><text x="9.018" y="12.525" class="k">*</text><text x="11.022" y="12.525" class="q">&apos;</text><text x="12.024" y="12.525" class="k">{=photo}{</text><text x="21.042" y="12.525" class="g">}&apos;</text></svg><svg x="3360"><use xlink:href="#a"/><use xlink:href="#b" x="21.996" y="10.83"/><use xlink:href="#1"/><use xlink:href="#4" y="2.171"/><use xlink:href="#5" y="4.342"/><use xlink:href="#6" y="6.513"/><use xlink:href="#1" y="8.684"/><text y="12.525" class="g"></text><text x="2.004" y="12.525" class="h">mrf</text><text x="6.012" y="12.525" class="j">mv</text><text x="9.018" y="12.525" class="k">*</text><text x="11.022" y="12.525" class="q">&apos;</text><text x="12.024" y="12.525" class="k">{=photo}{}</text><text x="22.044" y="12.525" class="g">&apos;</text></svg><svg x="3444"><use xlink:href="#a"/><use xlink:href="#b" x="22.996" y="10.83"/><use xlink:href="#1"/><use xlink:href="#4" y="2.171"/><use xlink:href="#5" y="4.342"/><use xlink:href="#6" y="6.513"/><use xlink:href="#1" y="8.684"/><text y="12.525" class="g"></text><text x="2.004" y="12.525" class="h">mrf</text><text x="6.012" y="12.525" class="j">mv</text><text x="9.018" y="12.525" class="k">*</text><text x="11.022" y="12.525" class="q">&apos;</text><text x="12.024" y="12.525" class="k">{=photo}{}&apos;</text></svg><svg x="3528"><use xlink:href="#a"/><use xlink:href="#b" x="22.996" y="10.83"/><use xlink:href="#1"/><use xlink:href="#4" y="2.171"/><use xlink:href="#5" y="4.342"/><use xlink:href="#6" y="6.513"/><use xlink:href="#1" y="8.684"/><use xlink:href="#10" y="10.855"/></svg><svg x="3612"><use xlink:href="#a"/><use xlink:href="#b" x="-.004" y="13.001"/><use xlink:href="#1"/><use xlink:href="#4" y="2.171"/><use xlink:href="#5" y="4.342"/><use xlink:href="#6" y="6.513"/><use xlink:href="#1" y="8.684"/><use xlink:href="#10" y="10.855"/></svg><svg x="3696"><use xlink:href="#a"/><use xlink:href="#1"/><use xlink:href="#4" y="2.171"/><use xlink:href="#5" y="4.342"/><use xlink:href="#6" y="6.513"/><use xlink:href="#1" y="8.684"/><use xlink:href="#10" y="10.855"/><use xlink:href="#11" y="13.026"/><use xlink:href="#12" y="15.197"/><use xlink:href="#13" y="17.368"/><use xlink:href="#14" y="19.539"/><use xlink:href="#15" y="21.71"/><use xlink:href="#16" y="23.881"/><text y="27.722" class="l">Do</text><text x="3.006" y="27.722" class="l">you</text><text x="7.014" y="27.722" class="l">want</text><text x="12.024" y="27.722" class="l">to</text><text x="15.03" y="27.722" class="l">continue?</text><text x="25.05" y="27.722" class="l">[y/N]</text></svg><svg x="3780"><use xlink:href="#a"/><use xlink:href="#b" x="-.004" y="28.198"/><use xlink:href="#1"/><use xlink:href="#4" y="2.171"/><use xlink:href="#5" y="4.342"/><use xlink:href="#6" y="6.513"/><use xlink:href="#1" y="8.684"/><use xlink:href="#10" y="10.855"/><use xlink:href="#11" y="13.026"/><use xlink:href="#12" y="15.197"/><use xlink:href="#13" y="17.368"/><use xlink:href="#14" y="19.539"/><use xlink:href="#15" y="21.71"/><use xlink:href="#16" y="23.881"/><use xlink:href="#17" y="26.052"/></svg><svg x="3864"><use xlink:href="#a"/><use xlink:href="#b" x="-.004" y="28.198"/><use xlink:href="#1"/><use xlink:href="#4" y="2.171"/><use xlink:href="#5" y="4.342"/><use xlink:href="#6" y="6.513"/><use xlink:href="#1" y="8.684"/><use xlink:href="#10" y="10.855"/><use xlink:href="#11" y="13.026"/><use xlink:href="#12" y="15.197"/><use xlink:href="#13" y="17.368"/><use xlink:href="#14" y="19.539"/><use xlink:href="#15" y="21.71"/><use xlink:href="#16" y="23.881"/><use xlink:href="#17" y="26.052"/></svg><svg x="3948"><use xlink:href="#a"/><use xlink:href="#b" x="-.004" y="28.198"/><use xlink:href="#1"/><use xlink:href="#4" y="2.171"/><use xlink:href="#5" y="4.342"/><use xlink:href="#6" y="6.513"/><use xlink:href="#1" y="8.684"/><use xlink:href="#10" y="10.855"/><use xlink:href="#11" y="13.026"/><use xlink:href="#12" y="15.197"/><use xlink:href="#13" y="17.368"/><use xlink:href="#14" y="19.539"/><use xlink:href="#15" y="21.71"/><use xlink:href="#16" y="23.881"/><use xlink:href="#17" y="26.052"/></svg><svg x="4032"><use xlink:href="#a"/><use xlink:href="#b" x="-.004" y="28.198"/><use xlink:href="#1"/><use xlink:href="#4" y="2.171"/><use xlink:href="#5" y="4.342"/><use xlink:href="#6" y="6.513"/><use xlink:href="#1" y="8.684"/><use xlink:href="#10" y="10.855"/><use xlink:href="#11" y="13.026"/><use xlink:href="#12" y="15.197"/><use xlink:href="#13" y="17.368"/><use xlink:href="#14" y="19.539"/><use xlink:href="#15" y="21.71"/><use xlink:href="#16" y="23.881"/><use xlink:href="#17" y="26.052"/></svg><svg x="4116"><use xlink:href="#a"/><use xlink:href="#b" x="1.996" y="30.369"/><use xlink:href="#1"/><use xlink:href="#4" y="2.171"/><use xlink:href="#5" y="4.342"/><use xlink:href="#6" y="6.513"/><use xlink:href="#1" y="8.684"/><use xlink:href="#10" y="10.855"/><use xlink:href="#11" y="13.026"/><use xlink:href="#12" y="15.197"/><use xlink:href="#13" y="17.368"/><use xlink:href="#14" y="19.539"/><use xlink:href="#15" y="21.71"/><use xlink:href="#16" y="23.881"/><use xlink:href="#17" y="26.052"/><use xlink:href="#1" y="28.223"/><use xlink:href="#2" y="30.394"/></svg><svg x="4200"><use xlink:href="#a"/><use xlink:href="#b" x="2.996" y="30.369"/><use xlink:href="#1"/><use xlink:href="#4" y="2.171"/><use xlink:href="#5" y="4.342"/><use xlink:href="#6" y="6.513"/><use xlink:href="#1" y="8.684"/><use xlink:href="#10" y="10.855"/><use xlink:href="#11" y="13.026"/><use xlink:href="#12" y="15.197"/><use xlink:href="#13" y="17.368"/><use xlink:href="#14" y="19.539"/><use xlink:href="#15" y="21.71"/><use xlink:href="#16" y="23.881"/><use xlink:href="#17" y="26.052"/><use xlink:href="#1" y="28.223"/><text y="32.064" class="g"></text><text x="2.004" y="32.064" class="l">l</text></svg><svg x="4284"><use xlink:href="#a"/><use xlink:href="#b" x="2.996" y="30.369"/><use xlink:href="#1"/><use xlink:href="#4" y="2.171"/><use xlink:href="#5" y="4.342"/><use xlink:href="#6" y="6.513"/><use xlink:href="#1" y="8.684"/><use xlink:href="#10" y="10.855"/><use xlink:href="#11" y="13.026"/><use xlink:href="#12" y="15.197"/><use xlink:href="#13" y="17.368"/><use xlink:href="#14" y="19.539"/><use xlink:href="#15" y="21.71"/><use xlink:href="#16" y="23.881"/><use xlink:href="#17" y="26.052"/><use xlink:href="#1" y="28.223"/><use xlink:href="#3" y="30.394"/></svg><svg x="4368"><use xlink:href="#a"/><use xlink:href="#b" x="3.996" y="30.369"/><use xlink:href="#1"/><use xlink:href="#4" y="2.171"/><use xlink:href="#5" y="4.342"/><use xlink:href="#6" y="6.513"/><use xlink:href="#1" y="8.684"/><use xlink:href="#10" y="10.855"/><use xlink:href="#11" y="13.026"/><use xlink:href="#12" y="15.197"/><use xlink:href="#13" y="17.368"/><use xlink:href="#14" y="19.539"/><use xlink:href="#15" y="21.71"/><use xlink:href="#16" y="23.881"/><use xlink:href="#17" y="26.052"/><use xlink:href="#1" y="28.223"/><use xlink:href="#4" y="30.394"/></svg><svg x="4452"><use xlink:href="#a"/><use xlink:href="#b" x="-.004" y="32.54"/><use xlink:href="#1"/><use xlink:href="#4" y="2.171"/><use xlink:href="#5" y="4.342"/><use xlink:href="#6" y="6.513"/><use xlink:href="#1" y="8.684"/><use xlink:href="#10" y="10.855"/><use xlink:href="#11" y="13.026"/><use xlink:href="#12" y="15.197"/><use xlink:href="#13" y="17.368"/><use xlink:href="#14" y="19.539"/><use xlink:href="#15" y="21.71"/><use xlink:href="#16" y="23.881"/><use xlink:href="#17" y="26.052"/><use xlink:href="#1" y="28.223"/><use xlink:href="#4" y="30.394"/></svg><svg x="4536"><use xlink:href="#a"/><use xlink:href="#b" x="-.004" y="32.54"/><use xlink:href="#1"/><use xlink:href="#4" y="2.171"/><use xlink:href="#5" y="4.342"/><use xlink:href="#6" y="6.513"/><use xlink:href="#1" y="8.684"/><use xlink:href="#10" y="10.855"/><use xlink:href="#11" y="13.026"/><use xlink:href="#12" y="15.197"/><use xlink:href="#13" y="17.368"/><use xlink:href="#14" y="19.539"/><use xlink:href="#15" y="21.71"/><use xlink:href="#16" y="23.881"/><use xlink:href="#17" y="26.052"/><use xlink:href="#1" y="28.223"/><use xlink:href="#4" y="30.394"/></svg><svg x="4620"><use xlink:href="#a"/><use xlink:href="#b" x="-.004" y="36.882"/><use xlink:href="#1"/><use xlink:href="#4" y="2.171"/><use xlink:href="#5" y="4.342"/><use xlink:href="#6" y="6.513"/><use xlink:href="#1" y="8.684"/><use xlink:href="#10" y="10.855"/><use xlink:href="#11" y="13.026"/><use xlink:href="#12" y="15.197"/><use xlink:href="#13" y="17.368"/><use xlink:href="#14" y="19.539"/><use xlink:href="#15" y="21.71"/><use xlink:href="#16" y="23.881"/><use xlink:href="#17" y="26.052"/><use xlink:href="#1" y="28.223"/><use xlink:href="#4" y="30.394"/><use xlink:href="#18" y="32.565"/><use xlink:href="#19" y="34.736"/></svg><svg x="4704"><use xlink:href="#a"/><use xlink:href="#b" x="-.004" y="36.882"/><use xlink:href="#1"/><use xlink:href="#4" y="2.171"/><use xlink:href="#5" y="4.342"/><use xlink:href="#6" y="6.513"/><use xlink:href="#1" y="8.684"/><use xlink:href="#10" y="10.855"/><use xlink:href="#11" y="13.026"/><use xlink:href="#12" y="15.197"/><use xlink:href="#13" y="17.368"/><use xlink:href="#14" y="19.539"/><use xlink:href="#15" y="21.71"/><use xlink:href="#16" y="23.881"/><use xlink:href="#17" y="26.052"/><use xlink:href="#1" y="28.223"/><use xlink:href="#4" y="30.394"/><use xlink:href="#18" y="32.565"/><use xlink:href="#19" y="34.736"/></svg><svg x="4788"><use xlink:href="#a"/><use xlink:href="#b" x="-.004" y="36.882"/><use xlink:href="#1"/><use xlink:href="#4" y="2.171"/><use xlink:href="#5" y="4.342"/><use xlink:href="#6" y="6.513"/><use xlink:href="#1" y="8.684"/><use xlink:href="#10" y="10.855"/><use xlink:href="#11" y="13.026"/><use xlink:href="#12" y="15.197"/><use xlink:href="#13" y="17.368"/><use xlink:href="#14" y="19.539"/><use xlink:href="#15" y="21.71"/><use xlink:href="#16" y="23.881"/><use xlink:href="#17" y="26.052"/><use xlink:href="#1" y="28.223"/><use xlink:href="#4" y="30.394"/><use xlink:href="#18" y="32.565"/><use xlink:href="#19" y="34.736"/></svg><svg x="4872"><use xlink:href="#a"/><use xlink:href="#b" x="-.004" y="36.882"/><use xlink:href="#1"/><use xlink:href="#4" y="2.171"/><use xlink:href="#5" y="4.342"/><use xlink:href="#6" y="6.513"/><use xlink:href="#1" y="8.684"/><use xlink:href="#10" y="10.855"/><use xlink:href="#11" y="13.026"/><use xlink:href="#12" y="15.197"/><use xlink:href="#13" y="17.368"/><use xlink:href="#14" y="19.539"/><use xlink:href="#15" y="21.71"/><use xlink:href="#16" y="23.881"/><use xlink:href="#17" y="26.052"/><use xlink:href="#1" y="28.223"/><use xlink:href="#4" y="30.394"/><use xlink:href="#18" y="32.565"/><use xlink:href="#19" y="34.736"/></svg><svg x="4956"><use xlink:href="#a"/><use xlink:href="#b" x="1.996" y="39.053"/><use xlink:href="#1"/><use xlink:href="#4" y="2.171"/><use xlink:href="#5" y="4.342"/><use xlink:href="#6" y="6.513"/><use xlink:href="#1" y="8.684"/><use xlink:href="#10" y="10.855"/><use xlink:href="#11" y="13.026"/><use xlink:href="#12" y="15.197"/><use xlink:href="#13" y="17.368"/><use xlink:href="#14" y="19.539"/><use xlink:href="#15" y="21.71"/><use xlink:href="#16" y="23.881"/><use xlink:href="#17" y="26.052"/><use xlink:href="#1" y="28.223"/><use xlink:href="#4" y="30.394"/><use xlink:href="#18" y="32.565"/><use xlink:href="#19" y="34.736"/><use xlink:href="#1" y="36.907"/><use xlink:href="#2" y="39.078"/></svg><svg x="5040"><use xlink:href="#a"/><use xlink:href="#b" x="-.004" y="41.224"/><use xlink:href="#1"/><use xlink:href="#4" y="2.171"/><use xlink:href="#5" y="4.342"/><use xlink:href="#6" y="6.513"/><use xlink:href="#1" y="8.684"/><use xlink:href="#10" y="10.855"/><use xlink:href="#11" y="13.026"/><use xlink:href="#12" y="15.197"/><use xlink:href="#13" y="17.368"/><use xlink:href="#14" y="19.539"/><use xlink:href="#15" y="21.71"/><use xlink:href="#16" y="23.881"/><use xlink:href="#17" y="26.052"/><use xlink:href="#1" y="28.223"/><use xlink:href="#4" y="30.394"/><use xlink:href="#18" y="32.565"/><use xlink:href="#19" y="34.736"/><use xlink:href="#1" y="36.907"/><use xlink:href="#2" y="39.078"/></svg><svg x="5124"><use xlink:href="#a"/><use xlink:href="#b" x="-.004" y="41.224"/><use xlink:href="#1"/><use xlink:href="#4" y="2.171"/><use xlink:href="#5" y="4.342"/><use xlink:href="#6" y="6.513"/><use xlink:href="#1" y="8.684"/><use xlink:href="#10" y="10.855"/><use xlink:href="#11" y="13.026"/><use xlink:href="#12" y="15.197"/><use xlink:href="#13" y="17.368"/><use xlink:href="#14" y="19.539"/><use xlink:href="#15" y="21.71"/><use xlink:href="#16" y="23.881"/><use xlink:href="#17" y="26.052"/><use xlink:href="#1" y="28.223"/><use xlink:href="#4" y="30.394"/><use xlink:href="#18" y="32.565"/><use xlink:href="#19" y="34.736"/><use xlink:href="#1" y="36.907"/><use xlink:href="#2" y="39.078"/></svg></svg></g></g></svg></svg>